# xmcd
#
# Track frame offsets:
#	150
#	14786
#	26515
#	35694
#	49101
#	62773
#	76230
#	87641
#	104186
#	119116
#	133694
#	145086
#	157721
#
# Disc length: 2295 seconds
#
# Revision: 1
# Processed by: cddbd v1.5.1PL0 Copyright (c) Steve Scherf et al.
# Submitted via: audiograbber 1.83.01
#
DISCID=b908f50d
DTITLE=Tom Armstrong - SONGS THAT MAKE THE JUKEBOX PLAY
DYEAR=2001
DGENRE=Country
TTITLE0=Can't Stand To Think
TTITLE1=Eat At Home
TTITLE2=You Used To Live It Up
TTITLE3=Brand New Memories
TTITLE4=Promises Promises
TTITLE5=Give Up On Me
TTITLE6=How Much Longer
TTITLE7=Blue and Dues
TTITLE8=I'll Match You
TTITLE9=A Good Night Tonight
TTITLE10=First One To Get There
TTITLE11=No Big Thing To Me
TTITLE12=Hard Times Are Gone
EXTD=
EXTT0=
EXTT1=
EXTT2=
EXTT3=
EXTT4=
EXTT5=
EXTT6=
EXTT7=
EXTT8=
EXTT9=
EXTT10=
EXTT11=
EXTT12=
PLAYORDER=
